<?xml version="1.0" encoding="UTF-8" standalone="no"?>
<!-- Created with Inkscape (http://www.inkscape.org/) -->

<svg
   width="210mm"
   height="297mm"
   viewBox="0 0 210 297"
   version="1.1"
   id="svg135"
   xml:space="preserve"
   xmlns="http://www.w3.org/2000/svg"
   xmlns:svg="http://www.w3.org/2000/svg"><defs
     id="defs132" /><g
     id="layer1"><path
       d="m 94.103332,190.82474 -0.661459,-0.60855 -46.355,-43.0477 c -8.122708,-7.54063 -12.726458,-18.12396 -12.726458,-29.21 v -0.87313 c 0,-18.626664 13.229167,-34.607497 31.538333,-38.099997 10.424584,-2.010834 21.087292,0.396875 29.580417,6.376458 2.38125,1.693333 4.603755,3.65125 6.614585,5.900208 1.11125,-1.27 2.30187,-2.434166 3.57187,-3.518958 0.97896,-0.846667 1.98438,-1.640417 3.04271,-2.38125 0,0 0,0 0,0 8.49313,-5.979583 19.15584,-8.387292 29.58042,-6.402917 18.30917,3.4925 31.53833,19.499792 31.53833,38.126456 v 0.87313 c 0,11.08604 -4.60374,21.66937 -12.72645,29.21 l -46.35501,43.0477 -0.66145,0.60855 c -2.16959,2.01083 -5.02709,3.14854 -7.99042,3.14854 -2.963335,0 -5.820835,-1.11125 -7.990418,-3.14854 z M 97.62229,105.3114 c -0.105833,-0.0794 -0.185208,-0.1852 -0.264583,-0.29104 l -4.709584,-5.291664 c 0,0 -0.02646,-0.02646 -0.02646,-0.02646 0,0 0,0 0,0 -6.111875,-6.852709 -15.345833,-9.974792 -24.341667,-8.255 -12.329581,2.354793 -21.219581,13.096874 -21.219581,25.638124 v 0.87313 c 0,7.54062 3.148542,14.76375 8.678333,19.89666 l 46.355002,43.04771 46.35499,-43.04771 c 5.52979,-5.13291 8.67834,-12.35604 8.67834,-19.89666 v -0.87313 c 0,-12.51479 -8.89,-23.283331 -21.19313,-25.638122 -8.99583,-1.719792 -18.25624,1.42875 -24.34166,8.255 0,0 0,0 -0.0265,0.02646 -0.0265,0.02646 0,0 -0.0265,0.02646 l -4.70958,5.291662 c -0.0794,0.10583 -0.18521,0.18521 -0.26458,0.29104 -1.19063,1.19063 -2.80459,1.85209 -4.47146,1.85209 -1.66688,0 -3.280835,-0.66146 -4.47146,-1.85209 z"
       id="path1643"
       style="fill:#000000;fill-opacity:1;stroke-width:7.065;stroke-dasharray:none;stroke:#ffffff;stroke-opacity:0.98076922" /><path
       style="fill:#000000;fill-opacity:0.60593218;stroke:#000000;stroke-width:34.692;stroke-linecap:round;stroke-dasharray:none;stroke-opacity:0;opacity:0.67088608"
       d="m 297.13509,600.20747 c -48.80208,-45.32055 -91.63149,-85.77853 -95.17648,-89.9066 -7.31637,-8.5198 -16.96396,-27.11054 -20.07631,-38.6867 -3.3465,-12.44702 -3.98419,-34.51907 -1.37005,-47.42039 8.12698,-40.10828 39.74037,-71.15468 79.50542,-78.07947 11.03048,-1.92087 33.8119,-0.81095 43.34847,2.11195 10.44092,3.20008 24.85163,10.63119 32.96434,16.99858 3.90012,3.06107 13.03649,12.17317 20.30305,20.24911 16.27172,18.08412 18.92701,19.88844 29.21929,19.85506 10.49606,-0.034 13.51469,-2.0639 29.1399,-19.5949 15.38005,-17.25593 24.93961,-24.93052 39.43461,-31.65882 37.39984,-17.36029 79.46485,-10.01591 109.17662,19.06181 12.38062,12.11643 21.33951,27.2639 26.3546,44.55975 3.37938,11.65474 3.42748,41.1227 0.0869,53.26772 -3.43014,12.47077 -11.60193,28.54756 -19.35372,38.0756 -3.75841,4.61964 -44.83546,43.62747 -91.28231,86.68407 -46.44685,43.05659 -86.49508,80.21961 -88.99607,82.58447 l -4.54724,4.29976 -88.73105,-82.401 z"
       id="path2457"
       transform="scale(0.26458333)" /><path
       style="fill:#000000;fill-opacity:0.605932;stroke:#ffffff;stroke-width:34.692;stroke-linecap:round;stroke-dasharray:none;stroke-opacity:0.980769"
       d="m 373.92221,716.17422 c -4.23214,-2.01734 -32.84898,-27.7311 -93.54331,-84.05365 -48.09521,-44.63092 -91.7008,-85.41483 -96.90133,-90.63091 -16.49911,-16.54847 -28.45678,-37.40792 -35.08363,-61.20131 -3.2116,-11.53107 -3.50005,-14.50778 -3.48446,-35.95764 0.0177,-24.35455 0.89095,-30.04512 7.27711,-47.42126 24.04147,-65.41456 96.74893,-101.61697 162.69643,-81.00961 23.38201,7.30644 41.65145,19.00566 59.82233,38.30849 l 10.96759,11.65081 15.36234,-15.33114 c 20.52365,-20.48195 36.72206,-29.8917 63.60834,-36.95046 9.71661,-2.551 14.56544,-3.00909 31.00599,-2.92928 16.78751,0.0815 21.28863,0.57361 32.48031,3.55109 35.55353,9.45882 67.46437,34.57456 83.78407,65.94307 10.94995,21.04721 14.29886,34.06477 15.17612,58.99144 0.58777,16.70061 0.28463,21.43083 -2.11917,33.0694 -4.62399,22.38814 -14.85972,44.08101 -28.82575,61.09123 -2.39461,2.91657 -46.61796,44.60369 -98.2741,92.63805 -66.01895,61.39015 -95.73808,88.19862 -100.03937,90.24168 -3.52024,1.67208 -8.60219,2.90652 -11.96558,2.90652 -3.36983,0 -8.42941,-1.23123 -11.94393,-2.90652 z M 480.19028,615.43536 c 51.37664,-47.73397 96.22292,-89.92925 99.65838,-93.76729 29.0554,-32.46009 36.37119,-86.53067 17.18653,-127.02462 -27.15351,-57.31419 -95.18651,-80.83838 -152.24492,-52.64267 -14.13173,6.98326 -24.99866,15.85367 -40.1466,32.77066 -7.58008,8.46534 -14.99944,15.7099 -16.48743,16.09902 -4.43215,1.15903 -7.9776,-1.64376 -22.72975,-17.96861 -27.29319,-30.20286 -53.37897,-42.60701 -89.34381,-42.48422 -29.85741,0.10193 -54.37177,9.61603 -75.59955,29.3404 -16.032,14.89658 -25.95831,30.93662 -32.40069,52.35664 -2.98513,9.92515 -3.45671,13.90693 -3.58469,30.26722 -0.16776,21.44675 1.87856,32.79235 8.9302,49.51242 6.02493,14.28566 14.33472,26.05885 27.5462,39.02702 17.49717,17.17494 183.85019,171.30308 184.89022,171.30308 0.50261,0 42.94926,-39.05507 94.32591,-86.78905 z"
       id="path7910"
       transform="scale(0.26458333)" /></g></svg>
